<svg version="1.0" xmlns="http://www.w3.org/2000/svg" width="666.667" height="666.667" color="white" viewBox="0 0 500 500">
    <path d="M130 53.6c-18.4 4-34.1 18.1-40.3 36.3l-2.2 6.6-.3 145.7-.3 145.8H60.5c-25.2 0-26.6.1-28.5 2-2.4 2.4-2.5 5.9-.5 15.5 4.3 20.3 20 36.1 40.8 41 5.3 1.3 24.5 1.5 130.2 1.5 135.2 0 130 .2 142.3-5.7 8.4-4 19-15 23.6-24.3 6.9-14.2 6.6-6.1 6.6-163.8V112h45.5c45.1 0 45.5 0 47.6-2.1 1.9-1.9 2.1-2.9 1.6-8.8-1.9-21.8-16.1-38.9-38.7-47-4-1.4-19.4-1.6-149.5-1.8-122-.1-146 .1-151.5 1.3zm250 11.9c0 .2-1.8 2.3-4 4.7-4.2 4.5-9.9 14.5-12.1 21.3-1.1 3.2-1.5 33.9-1.9 158.5l-.5 154.5-3.2 6.7c-4.2 9-11 16-19.2 20.1-6.2 3-7.1 3.2-18.1 3.2-10.3 0-12.1-.3-17.1-2.6-9.6-4.5-18.2-13.7-21.5-23.1-.8-2.4-1.9-7.4-2.4-11.3-.6-4.7-1.4-7.3-2.6-8.2-1.4-1-19.6-1.3-89.6-1.3H100V244.7c0-156.3-.2-149.5 5.6-159.5 5.5-9.3 12.2-14.7 22.9-18.4 4.6-1.6 14-1.7 128.3-1.8 67.7 0 123.2.2 123.2.5zm52.2 2.8c9.7 4.7 20.8 19.2 22 28.7l.3 2.5-39.4.3-39.4.2.6-3.7c1.6-9.5 10.7-21.7 19.8-26.4 7.8-4 12-4.9 21.5-4.6 7.4.2 10 .8 14.6 3zM268.7 406.4c1.7 7.6 7.4 18.4 12.9 24.3 2.4 2.6 4.4 4.8 4.4 5 0 .8-200.3.1-206.3-.6-8.6-1.2-16.3-4.9-22.2-10.9-5-5-10.2-14.6-11.2-20.5l-.6-3.7 110.8.2 110.8.3 1.4 5.9z"/>
    <path d="M151.9 144.4c-8.9 2.4-15.9 9.7-17.9 18.9-.8 3.4-1.1 13.1-.8 27.7.4 25 .8 26.8 7.9 33.8 6.5 6.4 8 6.7 34.1 7 14.8.2 25.2-.1 27.7-.8 5.7-1.5 12.2-6.8 15.3-12.5 2.6-4.7 2.8-5.7 2.5-15.5-.2-10.2-.3-10.5-2.9-12-2.5-1.3-3.1-1.3-5.5 0-2.7 1.5-2.8 2-3.3 10.7-.6 10.3-2.1 13.5-8.1 16.5-2.9 1.5-6.3 1.8-23.7 1.8-22.7 0-25.8-.6-29.2-6.2-1.8-3.1-2-5-2-26.6V164l3.4-3.8 3.4-3.7 21.7-.5c21.3-.5 21.7-.5 23.6-2.9 2.5-3.1 2.4-4.7-.6-7.6-2.4-2.5-2.5-2.5-21.7-2.4-11.9 0-21 .5-23.9 1.3zM266.5 144.2c-4.1 2.3-4.7 6.6-1.5 9.8 1.9 1.9 3.3 2 31 2s29.1-.1 31-2c2.8-2.8 2.5-6.4-.6-8.9-2.6-2-3.8-2.1-30.3-2.1-18.7.1-28.2.4-29.6 1.2z"/>
    <path d="M224 148.8c-.8.2-10.8 9.7-22.2 21l-20.6 20.5-8-7.1c-4.6-4.3-8.8-7.2-10-7.2-2.9 0-6.2 3.4-6.2 6.3 0 2.6 19.1 22.1 22.8 23.2 1.9.6 4.7-1.7 19-15.5 28.1-27.2 32.2-31.7 32.2-35.5 0-4.2-3.3-6.9-7-5.7zM242.5 170.4c-1.1.8-1.8 2.6-1.8 4.6 0 6.1-.5 6 44.3 6 38.2 0 40.8-.1 42.3-1.8 2.2-2.4 2.1-6.5-.1-8.5-1.7-1.5-6.1-1.7-42.3-1.7-32.6 0-40.9.3-42.4 1.4zM242.1 196.7c-2.4 3-2 5.8 1.1 8.6 2 1.6 4.9 1.7 42.5 1.5 38.7-.3 40.5-.4 41.9-2.2 2-2.8 1.7-6.3-.6-8.6-1.9-1.9-3.3-2-42.4-2h-40.5l-2 2.7zM242.8 221.2c-2.7 2.2-3 5.3-.7 8.1l2 2.7h40.8c38.2 0 40.9-.1 42.4-1.8 2.2-2.4 2.1-6.5-.1-8.5-1.7-1.5-6.1-1.7-42.3-1.7-30.9 0-40.9.3-42.1 1.2zM154 260.9c-9.5 1.9-17 8.7-19.6 17.8-1.2 4.2-1.5 9.9-1.2 28.5.3 21.8.4 23.6 2.5 27.4 2.9 5.5 7.8 10.3 12.8 12.5 3.5 1.6 6.9 1.9 28.5 1.9 23.6 0 24.7-.1 29.5-2.4 2.8-1.2 6.5-3.9 8.3-6 5.2-6 6.3-9.7 6-21-.3-9.6-.4-10.1-2.9-11.5-2.2-1.2-2.9-1.2-5.5 0-2.8 1.4-2.9 1.6-3.4 10.6-.6 10.3-2.1 13.5-8.1 16.5-2.9 1.5-6.3 1.8-23.4 1.7-22.6 0-25.8-.7-29.3-5.9-2.3-3.4-2.3-3.7-2-27.2l.3-23.8 3.3-3.2 3.2-3.3 20.3-.3c11.1-.1 21.2-.4 22.3-.7 1.2-.3 2.7-1.8 3.4-3.4 1.4-3.6.1-6.7-3.6-8.1-2.9-1.1-36-1.1-41.4-.1zM267 260.7c-4.2 1.5-5.3 7-2 10.3 1.9 1.9 3.3 2 31 2s29.1-.1 31-2c2.8-2.8 2.5-6.4-.6-8.9-2.6-2-3.8-2.1-30.3-2-15.2 0-28.3.3-29.1.6z"/>
    <path d="M202 286.5c-11.3 11.3-20.7 20.5-21.1 20.5-.3 0-3.9-3.1-8-7-7.9-7.4-10.5-8.4-13.9-5-3.8 3.8-2.7 6 8.9 17.3 5.9 5.9 11.6 10.7 12.5 10.7 1.7 0 35.2-31.4 45.4-42.5 4.1-4.5 5.2-6.4 5.2-9.1 0-2.3-.6-3.7-1.9-4.4-4.7-2.5-6.1-1.5-27.1 19.5zM242.7 287.8c-2.1 2.3-2.2 6.6-.1 8.6 1.4 1.4 6.3 1.6 42.7 1.4l41.1-.3 1.6-2.8c1.3-2.4 1.3-3 0-5.5l-1.6-2.7-41-.3c-38.8-.2-41.2-.1-42.7 1.6zM243.2 312.6c-3 2.1-3 7.7 0 9.8 1.9 1.4 7.6 1.6 41.1 1.6 38.5 0 41.8-.3 43.9-3.4 1.4-2 .8-5.6-1.2-7.6-1.9-1.9-3.3-2-41.8-2-34.4 0-40.1.2-42 1.6zM242.6 338.6c-.9.8-1.6 2.8-1.6 4.4 0 6.2-1 6 44.3 5.8l41.1-.3 1.6-2.8c1.3-2.4 1.3-3 0-5.5l-1.6-2.7-41.1-.3c-36.4-.2-41.3 0-42.7 1.4z"/>
</svg>